<?xml version="1.0" standalone="no"?>
<!DOCTYPE svg PUBLIC "-//W3C//DTD SVG 20010904//EN"
 "http://www.w3.org/TR/2001/REC-SVG-20010904/DTD/svg10.dtd">
<svg version="1.0" xmlns="http://www.w3.org/2000/svg"
 width="852.000000pt" height="852.000000pt" viewBox="0 0 852.000000 852.000000"
 preserveAspectRatio="xMidYMid meet">

<g transform="translate(0.000000,852.000000) scale(0.100000,-0.100000)"
fill="#000000" stroke="none">
<path d="M3365 8484 c-27 -2 -123 -13 -212 -25 -90 -11 -168 -17 -174 -13 -7
4 -9 3 -6 -4 5 -6 -9 -13 -35 -17 -24 -4 -96 -23 -161 -41 -66 -19 -124 -31
-130 -27 -7 3 -9 2 -4 -2 9 -11 -163 -77 -181 -70 -8 3 -10 0 -6 -7 5 -8 2 -9
-10 -5 -9 4 -14 3 -11 -2 7 -12 -31 -25 -45 -16 -6 4 -9 1 -8 -7 2 -8 -6 -13
-20 -13 -13 0 -28 -8 -33 -18 -6 -9 -14 -17 -19 -17 -5 0 -44 -20 -86 -45 -42
-25 -81 -42 -87 -38 -7 3 -9 3 -5 -2 10 -11 -59 -58 -72 -50 -6 4 -9 1 -8 -7
2 -7 -5 -12 -14 -12 -10 1 -16 -3 -15 -10 1 -6 -6 -10 -15 -10 -10 1 -16 -2
-13 -6 7 -11 -61 -61 -77 -58 -7 2 -12 -2 -11 -9 3 -16 -85 -86 -98 -77 -7 4
-9 3 -6 -3 8 -13 -17 -36 -28 -25 -5 4 -5 2 -2 -4 7 -12 -110 -121 -125 -116
-5 1 -7 -2 -4 -7 7 -11 -121 -157 -135 -153 -5 1 -8 -4 -7 -10 2 -7 -2 -12 -8
-11 -7 1 -11 -5 -10 -15 0 -9 -5 -16 -12 -14 -6 1 -11 -2 -10 -7 5 -15 -63
-102 -74 -95 -7 4 -8 2 -4 -5 9 -15 -32 -73 -46 -65 -7 4 -8 2 -4 -4 4 -7 -21
-57 -57 -114 -35 -57 -69 -113 -76 -126 -7 -12 -17 -20 -23 -16 -6 4 -8 3 -4
-4 9 -14 -25 -83 -37 -75 -6 3 -7 1 -3 -5 7 -12 -34 -103 -45 -97 -4 3 -7 -1
-6 -8 1 -34 -4 -48 -15 -41 -6 4 -8 3 -5 -4 7 -10 -66 -205 -74 -198 -2 3 -5
-5 -6 -17 -3 -41 -67 -246 -75 -241 -4 3 -5 -1 -2 -9 3 -8 -1 -43 -9 -78 -8
-35 -18 -88 -22 -117 -4 -28 -10 -50 -13 -48 -4 2 -8 -28 -9 -67 -2 -39 -6
-73 -10 -76 -5 -3 -10 -53 -12 -111 -2 -58 -6 -107 -10 -110 -9 -7 -8 -640 2
-640 4 0 8 -26 8 -57 0 -32 2 -85 5 -118 3 -42 2 -55 -5 -45 -5 8 -13 12 -16
9 -3 -4 -31 0 -63 7 -73 18 -176 17 -226 -1 -22 -8 -43 -12 -48 -9 -4 3 -8 0
-8 -6 0 -6 -4 -9 -9 -6 -5 3 -12 -1 -15 -10 -4 -9 -13 -14 -22 -10 -8 3 -13 2
-10 -3 7 -12 -39 -53 -49 -44 -4 5 -6 3 -2 -2 5 -11 -36 -88 -44 -81 -2 2 -5
-5 -6 -17 -1 -12 -9 -53 -18 -92 -14 -56 -15 -91 -9 -175 4 -58 8 -123 8 -145
1 -22 4 -42 7 -45 12 -9 38 -159 32 -181 -5 -16 -3 -20 7 -14 10 6 12 2 8 -18
-3 -16 -1 -24 5 -20 6 4 8 -4 5 -20 -3 -15 -2 -24 2 -22 11 7 64 -320 56 -342
-3 -7 -1 -13 5 -13 7 0 10 -14 7 -35 -2 -19 0 -35 5 -35 5 0 7 -11 4 -25 -2
-14 -2 -23 1 -20 6 5 64 -209 66 -242 1 -11 5 -19 10 -15 5 3 7 -5 4 -16 -4
-12 -2 -20 2 -17 11 7 32 -54 23 -68 -3 -5 -1 -7 4 -4 11 7 49 -79 45 -101 -2
-7 4 -15 13 -18 9 -4 14 -13 11 -20 -3 -7 0 -16 6 -20 7 -4 8 -3 4 4 -4 7 -5
12 -2 12 10 0 35 -58 28 -65 -4 -5 -1 -4 7 0 11 6 13 4 8 -9 -4 -9 -3 -15 2
-12 5 3 17 -7 26 -22 10 -15 36 -48 57 -74 23 -28 36 -52 32 -59 -4 -7 -3 -10
2 -6 13 8 45 -18 42 -34 -2 -7 3 -13 10 -14 7 0 38 -21 70 -46 31 -25 81 -60
109 -76 29 -16 50 -32 47 -35 -3 -3 1 -6 8 -5 31 1 49 -4 44 -12 -4 -5 4 -7
16 -3 12 3 19 1 15 -5 -4 -6 39 -9 114 -9 l119 1 6 -33 c4 -18 4 -49 1 -68 -3
-19 -2 -32 3 -29 5 3 8 -13 7 -35 -2 -22 0 -40 3 -40 8 0 55 -249 53 -278 -1
-14 2 -20 9 -16 7 5 9 -2 6 -20 -3 -14 -1 -26 5 -26 5 0 7 -9 4 -20 -3 -11 -2
-18 3 -15 11 7 34 -81 25 -96 -5 -7 -4 -10 2 -6 14 9 34 -48 26 -70 -5 -11 -3
-14 6 -8 10 6 11 2 6 -15 -5 -17 -4 -21 6 -15 9 6 11 3 6 -9 -4 -9 -3 -15 2
-12 11 7 23 -22 15 -35 -3 -5 0 -9 6 -9 7 0 9 -7 6 -16 -3 -8 -2 -12 3 -9 11
6 24 -26 29 -73 1 -7 6 -11 11 -8 11 7 23 -22 14 -36 -3 -6 -2 -8 4 -5 12 8
55 -67 45 -78 -4 -5 -1 -4 7 0 11 6 13 4 8 -9 -5 -11 -3 -15 5 -10 7 5 9 2 5
-9 -3 -9 1 -21 11 -29 15 -12 16 -11 3 5 -7 9 -11 17 -8 17 13 0 68 -91 61
-102 -4 -6 -3 -8 3 -5 14 9 37 -19 27 -34 -4 -7 -3 -9 3 -6 13 8 45 -26 41
-44 -2 -7 3 -13 10 -14 14 0 33 -25 26 -36 -2 -4 4 -13 14 -20 15 -13 16 -12
3 4 -7 9 -11 17 -8 17 3 0 16 -14 28 -32 13 -17 17 -28 9 -23 -9 5 -11 4 -6
-3 4 -7 14 -12 22 -12 9 0 14 -7 12 -17 -2 -10 2 -17 8 -16 7 1 20 -7 29 -17
10 -11 14 -20 10 -20 -5 0 0 -7 11 -16 10 -8 12 -12 4 -8 -9 4 -12 3 -7 -2 5
-5 13 -9 17 -9 16 0 100 -106 94 -117 -4 -6 -2 -8 3 -5 10 7 40 -20 43 -38 1
-5 6 -9 10 -8 10 3 75 -76 75 -92 1 -5 6 -9 12 -8 17 3 195 -186 187 -199 -5
-7 -3 -8 5 -3 16 9 143 -113 134 -128 -3 -6 -1 -7 4 -4 14 9 65 -32 57 -44 -3
-5 -2 -8 3 -7 14 5 93 -64 86 -76 -3 -6 -3 -8 2 -4 7 6 95 -49 95 -59 0 -2 -5
-1 -12 3 -7 4 -8 3 -4 -4 4 -6 12 -9 19 -7 7 3 26 -8 42 -23 17 -15 24 -22 16
-17 -11 7 -13 7 -7 -2 4 -7 16 -18 28 -24 14 -8 18 -8 14 0 -5 7 -1 9 8 5 9
-3 13 -11 9 -17 -3 -5 -2 -7 4 -4 11 7 106 -37 98 -45 -3 -3 7 -6 22 -5 15 0
29 -5 31 -11 2 -6 10 -8 19 -5 11 4 14 3 9 -6 -6 -9 0 -10 20 -5 19 5 25 4 20
-4 -4 -8 -2 -10 8 -6 8 3 49 -1 91 -10 43 -9 94 -16 115 -16 22 0 41 -3 43 -7
3 -5 183 -10 401 -12 l396 -3 0 4235 0 4236 -42 0 c-24 0 -209 2 -413 4 -203
3 -392 3 -420 1z m-568 -2185 c61 -13 100 -26 96 -32 -3 -6 -1 -7 5 -3 13 8
94 -13 88 -23 -2 -3 9 -7 26 -7 17 -1 33 -5 37 -10 3 -5 11 -9 16 -9 32 -1 74
-18 68 -28 -4 -7 0 -8 11 -4 21 8 68 -2 61 -13 -2 -4 7 -5 22 -2 18 3 24 1 19
-6 -4 -8 -2 -10 7 -6 8 3 35 0 58 -7 53 -14 300 -19 292 -5 -3 5 6 7 21 4 15
-3 24 -3 21 0 -3 4 9 14 27 24 18 9 42 22 54 28 17 10 31 8 72 -10 30 -13 49
-27 45 -33 -3 -5 -2 -7 4 -4 12 8 89 -40 121 -75 l23 -25 -5 -604 c-2 -332 -4
-622 -5 -644 0 -64 -22 -205 -31 -200 -5 3 -6 -5 -2 -17 4 -15 2 -19 -7 -13
-10 5 -11 2 -6 -13 7 -25 -24 -134 -37 -126 -4 3 -5 -3 -1 -12 4 -10 2 -15 -3
-11 -18 10 -7 -87 17 -148 l23 -60 8 -870 c4 -478 5 -889 2 -912 -9 -75 -84
-125 -161 -107 -15 3 -64 21 -108 39 -44 19 -137 52 -206 75 -72 23 -144 53
-168 70 -50 37 -81 95 -86 163 -3 44 -7 52 -22 49 -30 -5 -70 -57 -78 -102
-16 -96 26 -192 109 -249 26 -18 93 -49 150 -71 107 -39 135 -54 198 -103 30
-24 51 -31 114 -37 43 -4 91 -4 108 2 53 15 105 12 128 -8 33 -30 39 -62 39
-181 -1 -78 3 -113 10 -113 21 0 6 -156 -18 -188 -37 -50 -74 -55 -270 -32
-210 24 -293 25 -443 4 -155 -21 -275 -16 -317 14 -59 42 -130 18 -153 -53
-15 -45 -5 -86 26 -116 l26 -24 301 0 c268 0 319 -3 452 -24 147 -23 305 -25
373 -5 20 6 22 3 22 -36 0 -59 -25 -106 -63 -120 -35 -12 -292 -29 -452 -30
-126 0 -145 -10 -145 -77 0 -67 31 -124 83 -154 42 -24 42 -24 303 -21 l261 3
5 -353 c3 -194 3 -358 1 -365 -11 -28 -515 -11 -688 23 -108 22 -166 46 -260
109 -246 165 -852 823 -1092 1185 -146 220 -178 319 -253 775 -73 444 -111
587 -174 663 -34 39 -69 42 -92 7 -14 -21 -16 -40 -10 -110 8 -101 -5 -137
-57 -154 -42 -14 -120 0 -193 36 -221 107 -414 420 -480 778 -11 59 -18 167
-21 310 l-5 220 -28 43 c-25 38 -40 79 -95 254 -13 45 4 228 27 274 34 71 172
55 309 -34 121 -79 220 -200 340 -415 87 -156 139 -191 192 -127 52 61 72 167
87 450 6 107 15 223 20 258 11 69 97 255 113 245 6 -3 7 -1 3 5 -10 16 32 94
46 86 6 -4 8 -3 4 4 -7 12 14 63 24 57 4 -2 7 2 7 9 0 14 61 116 70 116 2 0 1
-5 -3 -12 -4 -7 -3 -8 5 -4 6 4 9 12 5 17 -3 6 7 27 23 47 33 41 53 75 53 90
0 6 -33 13 -74 17 -43 4 -77 12 -79 19 -7 18 61 108 75 100 6 -4 8 -3 4 4 -8
14 114 124 132 117 7 -2 11 -1 7 4 -7 12 106 83 123 76 8 -3 10 0 6 7 -5 8 -2
9 10 5 9 -4 14 -3 11 2 -3 5 5 13 17 17 13 3 35 15 49 25 14 10 28 16 31 14 2
-2 4 7 3 21 0 30 -26 51 -72 60 -18 3 -33 10 -33 15 0 15 94 79 108 74 7 -3
10 0 7 5 -6 10 7 14 34 11 7 -2 11 2 7 7 -12 20 176 79 343 108 52 8 104 19
116 24 13 5 26 6 29 3 5 -6 10 21 7 40 -1 4 -3 18 -5 30 -2 13 -9 21 -19 19
-8 -1 -18 2 -22 8 -10 15 30 12 142 -11z"/>
<path d="M3945 6080 c10 -11 20 -20 23 -20 3 0 -3 9 -13 20 -10 11 -20 20 -23
20 -3 0 3 -9 13 -20z"/>
<path d="M1980 4802 c-158 -53 -259 -143 -331 -295 -16 -34 -29 -67 -29 -73 0
-6 14 -17 31 -24 32 -14 56 -13 494 10 203 11 345 8 468 -11 75 -12 86 -25 30
-34 -328 -50 -476 -107 -590 -226 -42 -45 -89 -122 -76 -126 5 -1 41 -9 82
-17 69 -15 181 -69 181 -88 0 -4 3 -8 8 -8 4 0 7 30 7 68 0 77 16 107 76 141
58 33 66 29 71 -37 11 -112 87 -213 186 -246 54 -19 82 -20 133 -4 87 25 161
126 175 236 l7 53 31 -7 c79 -17 196 -108 196 -152 0 -12 18 -14 100 -10 54 2
102 6 105 9 3 3 -6 26 -19 50 -29 51 -41 117 -27 139 9 13 24 11 120 -13 173
-45 206 -26 206 118 0 117 -29 186 -109 263 -136 131 -334 190 -886 268 -252
35 -559 43 -640 16z"/>
<path d="M3021 3819 c-103 -115 -317 -161 -457 -100 -81 36 -45 5 52 -45 l96
-49 126 0 c126 0 128 0 204 37 57 27 98 56 150 107 l71 71 -35 0 c-33 0 -114
13 -148 23 -9 3 -33 -15 -59 -44z"/>
<path d="M4326 8463 c-3 -3 -6 -1908 -6 -4231 l0 -4225 298 6 c575 12 1219 78
1424 148 32 11 64 16 70 13 6 -4 8 -3 5 3 -4 6 6 19 21 28 63 40 131 137 132
189 0 10 5 16 13 13 9 -3 12 13 12 63 0 42 -4 66 -10 63 -6 -2 -16 16 -22 40
-7 24 -27 61 -45 81 -18 21 -33 43 -33 49 0 7 -7 11 -16 9 -22 -3 -51 31 -43
52 3 9 10 16 15 16 5 0 9 7 9 16 0 11 5 14 16 10 12 -5 15 -2 10 10 -3 8 -1
25 6 37 7 13 11 60 10 116 -1 87 -4 99 -39 170 -21 41 -46 84 -55 93 -10 10
-16 18 -14 18 14 0 -133 136 -264 245 -159 132 -192 164 -183 177 2 5 1 8 -4
7 -21 -4 -31 3 -41 26 -16 34 -15 38 7 62 54 57 73 154 47 237 -8 27 -12 54
-9 60 3 6 3 8 -2 4 -11 -11 -67 50 -59 64 4 6 3 8 -3 5 -14 -9 -65 32 -57 45
4 6 3 8 -2 5 -13 -8 -39 9 -39 25 -1 7 -6 12 -12 11 -20 -4 -74 54 -67 71 4 9
3 16 -2 15 -21 -4 -32 3 -43 27 -6 14 -8 30 -5 36 4 6 2 8 -4 4 -6 -3 -13 3
-17 14 -3 11 -10 20 -14 20 -4 0 -8 6 -8 13 0 6 -13 39 -29 72 -15 33 -27 64
-25 69 1 5 -2 12 -6 15 -14 10 -47 91 -40 98 4 3 0 11 -7 17 -8 6 -26 52 -41
101 -26 89 -37 134 -76 310 -20 93 -53 390 -63 577 -4 59 -9 120 -12 135 l-6
28 134 -3 c210 -6 323 28 426 127 30 28 58 48 64 45 6 -4 8 -3 5 3 -4 6 2 35
13 66 27 76 27 189 0 259 -11 28 -23 54 -27 57 -19 14 -53 72 -48 81 3 6 -1 7
-9 4 -9 -3 -29 5 -46 19 -16 14 -47 33 -69 43 -22 10 -38 21 -35 26 3 4 -3 5
-12 1 -12 -4 -15 -3 -10 5 5 8 2 10 -8 6 -11 -4 -16 0 -16 10 0 9 4 16 10 16
16 0 40 101 40 172 0 76 -16 123 -54 165 -14 15 -26 31 -26 35 0 3 -26 23 -57
42 -32 20 -52 36 -45 36 7 0 10 5 7 10 -3 6 2 10 12 11 10 0 13 3 7 5 -9 4 -8
12 1 32 28 55 54 130 48 136 -4 3 1 6 10 6 10 0 16 3 16 8 -4 24 2 42 13 36 7
-5 9 -2 5 9 -6 16 12 77 24 77 3 0 17 27 30 60 13 33 27 60 30 60 4 0 17 25
29 55 12 30 26 55 30 55 5 0 12 9 15 20 4 11 11 17 17 14 6 -4 8 -2 5 3 -8 12
11 73 23 73 4 0 18 24 30 53 12 28 26 54 30 57 4 3 17 25 30 49 26 52 44 73
55 63 5 -4 5 -2 2 4 -7 13 19 85 34 94 19 13 39 97 39 166 0 78 -21 148 -47
158 -8 4 -13 13 -9 21 3 8 2 14 -2 13 -15 -5 -92 53 -86 64 4 6 3 8 -4 4 -6
-3 -46 5 -89 20 -83 28 -290 70 -485 99 l-118 18 -2 31 c-1 17 -2 38 -4 46 -1
8 -2 21 -3 28 -1 7 -5 11 -10 7 -13 -7 -43 24 -35 37 4 7 2 8 -4 4 -7 -4 -13
-2 -13 3 -1 6 -2 16 -3 23 0 6 -11 12 -24 13 -12 1 -28 8 -35 17 -6 8 -25 22
-40 32 -15 9 -25 21 -22 27 4 5 3 8 -2 7 -4 -2 -10 2 -13 7 -3 6 56 10 167 10
94 0 169 2 167 4 -7 7 70 31 84 26 7 -3 11 -1 8 4 -3 5 12 20 33 34 22 15 42
36 46 47 5 15 12 19 23 15 13 -5 14 -3 5 6 -8 8 -9 19 -2 36 5 14 9 134 10
269 0 257 -6 301 -51 364 -11 15 -17 30 -13 34 3 3 -3 6 -15 6 -12 0 -22 4
-22 10 0 5 -3 9 -7 8 -13 -3 -53 13 -53 21 0 4 -10 7 -22 7 -13 0 -85 1 -160
2 l-138 2 11 27 c6 15 17 59 25 98 13 58 13 80 3 128 -10 49 -10 61 2 69 11 8
11 9 -2 5 -12 -4 -19 5 -27 31 -6 19 -9 39 -6 44 3 4 -3 5 -13 1 -16 -6 -16
-5 -4 10 12 15 12 17 0 12 -14 -5 -56 51 -51 68 1 5 -2 6 -8 2 -11 -7 -85 52
-85 68 0 6 -9 12 -20 13 -33 6 -116 50 -108 58 4 4 -1 4 -11 0 -15 -6 -17 -4
-11 6 6 10 4 12 -9 7 -10 -4 -23 -4 -29 0 -6 4 -23 8 -37 9 -14 2 -34 5 -46 8
-12 3 -24 3 -28 -1z"/>
</g>
</svg>
